<svg width="18" height="33" viewBox="0 0 18 33" fill="none" xmlns="http://www.w3.org/2000/svg">
<path d="M11.1126 32.6471H6.31116C5.50916 32.6471 4.85676 31.9559 4.85676 31.1063V19.6327H2.05547C1.25347 19.6327 0.601074 18.9412 0.601074 18.0918V13.1754C0.601074 12.3257 1.25347 11.6345 2.05547 11.6345H4.85676V9.17254C4.85676 6.73139 5.5803 4.65449 6.94892 3.16673C8.32371 1.67219 10.245 0.882385 12.5051 0.882385L16.1669 0.888686C16.9675 0.89014 17.6188 1.58131 17.6188 2.42952V6.99434C17.6188 7.844 16.9666 8.53517 16.1648 8.53517L13.6994 8.53614C12.9475 8.53614 12.756 8.69585 12.7151 8.7448C12.6476 8.82599 12.5673 9.05549 12.5673 9.68922V11.6343H15.9796C16.2364 11.6343 16.4853 11.7014 16.6992 11.8279C17.1606 12.101 17.4475 12.6175 17.4475 13.1756L17.4456 18.0921C17.4456 18.9412 16.7932 19.6324 15.9912 19.6324H12.5673V31.1063C12.5673 31.9559 11.9147 32.6471 11.1126 32.6471ZM6.61449 30.7849H10.8093V18.799C10.8093 18.2317 11.2451 17.7702 11.7804 17.7702H15.6879L15.6895 13.4967H11.7801C11.2449 13.4967 10.8093 13.0353 10.8093 12.468V9.68922C10.8093 8.9617 10.8791 8.13433 11.3974 7.51247C12.0238 6.76072 13.0108 6.67396 13.6989 6.67396L15.8611 6.67299V2.75038L12.5037 2.74457C8.87157 2.74457 6.61449 5.20777 6.61449 9.17254V12.468C6.61449 13.035 6.17894 13.4967 5.64367 13.4967H2.3588V17.7702H5.64367C6.17894 17.7702 6.61449 18.2317 6.61449 18.799V30.7849ZM16.1635 2.75087H16.1637H16.1635Z" fill="white"/>
</svg>
