<svg width="183" height="55" viewBox="0 0 183 55" fill="none" xmlns="http://www.w3.org/2000/svg">
<path d="M14.6054 25.6335C14.6054 24.6644 14.2819 23.9233 13.6349 23.4101C12.9879 22.8856 11.8234 22.3383 10.1412 21.7682C8.45907 21.1868 7.12736 20.6166 6.14612 20.0579C3.47193 18.53 2.13484 16.472 2.13484 13.8837C2.13484 12.5383 2.49067 11.3411 3.20236 10.2921C3.92481 9.23171 4.9546 8.40506 6.29169 7.81216C7.63956 7.21925 9.14918 6.92279 10.8206 6.92279C12.5027 6.92279 14.0015 7.24775 15.317 7.89767C16.6325 8.53618 17.6515 9.44265 18.3741 10.6171C19.1073 11.7915 19.4739 13.1255 19.4739 14.6192H14.6215C14.6215 13.479 14.2819 12.5953 13.6026 11.9682C12.9232 11.3297 11.9689 11.0104 10.7397 11.0104C9.55355 11.0104 8.6316 11.2784 7.97384 11.8143C7.31606 12.3388 6.98718 13.0343 6.98718 13.9008C6.98718 14.7104 7.36999 15.3888 8.13557 15.9361C8.91195 16.4834 10.0496 16.9965 11.5484 17.4754C14.3088 18.3534 16.3199 19.4421 17.5814 20.7421C18.8431 22.0419 19.4739 23.661 19.4739 25.5993C19.4739 27.7544 18.7029 29.4475 17.161 30.679C15.619 31.8989 13.5433 32.509 10.9338 32.509C9.12223 32.509 7.47242 32.1612 5.98437 31.4656C4.49632 30.7588 3.35871 29.7953 2.57154 28.5753C1.79517 27.3552 1.40698 25.9414 1.40698 24.3337H6.27551C6.27551 27.0815 7.82827 28.4555 10.9338 28.4555C12.0876 28.4555 12.9879 28.2104 13.6349 27.7201C14.2819 27.2184 14.6054 26.5229 14.6054 25.6335ZM60.6218 28.0451H70.925V32.1669H55.7695V7.26486H60.6218V28.0451ZM87.3421 27.036H78.8343L77.2169 32.1669H72.0573L80.8239 7.26486H85.3204L94.1355 32.1669H88.9758L87.3421 27.036ZM80.1445 22.8799H86.032L83.0721 13.5588L80.1445 22.8799ZM105.053 23.051H101.188V32.1669H96.3351V7.26486H105.086C107.868 7.26486 110.013 7.92048 111.523 9.23171C113.033 10.5429 113.788 12.3958 113.788 14.7903C113.788 16.4891 113.437 17.9087 112.736 19.0488C112.046 20.1777 110.995 21.0784 109.582 21.7512L114.677 31.9274V32.1669H109.469L105.053 23.051ZM101.188 18.8949H105.102C106.32 18.8949 107.264 18.57 107.932 17.9201C108.601 17.2588 108.935 16.3523 108.935 15.2007C108.935 14.0263 108.617 13.1027 107.981 12.43C107.355 11.7572 106.39 11.4209 105.086 11.4209H101.188V18.8949ZM139.909 21.3749H130.593V28.0451H141.527V32.1669H125.74V7.26486H141.495V11.4209H130.593V17.3557H139.909V21.3749ZM152.8 15.8506L157.216 7.26486H162.796L155.939 19.6132L162.974 32.1669H157.329L152.8 23.4443L148.272 32.1669H142.627L149.663 19.6132L142.805 7.26486H148.385L152.8 15.8506ZM179.601 21.3749H170.285V28.0451H181.219V32.1669H165.432V7.26486H181.186V11.4209H170.285V17.3557H179.601V21.3749Z" fill="white"/>
<path d="M37.67 10.8437C32.1603 10.8437 27.6776 15.5836 27.6776 21.4097C27.6776 27.2358 32.1603 31.9759 37.67 31.9759C43.1799 31.9759 47.6624 27.236 47.6624 21.4097C47.6624 15.5836 43.1799 10.8437 37.67 10.8437ZM37.67 30.1155C33.1302 30.1155 29.437 26.2101 29.437 21.4097C29.437 16.6095 33.1302 12.704 37.67 12.704C42.2097 12.704 45.9029 16.6095 45.9029 21.4097C45.9029 26.21 42.2097 30.1155 37.67 30.1155Z" fill="white"/>
<path d="M37.6709 3.89758C37.1846 3.89758 36.7906 4.31402 36.7906 4.82781V8.49046C36.7906 9.00435 37.1848 9.42079 37.6709 9.42079C38.1571 9.42079 38.5511 9.00435 38.5511 8.49056V4.82781C38.5511 4.31413 38.1571 3.89758 37.6709 3.89758Z" fill="white"/>
<path d="M49.3812 9.02683C49.0375 8.6635 48.4806 8.6635 48.1369 9.02683L45.6876 11.6168C45.344 11.9802 45.344 12.569 45.6876 12.9322C45.8593 13.114 46.0844 13.2048 46.3097 13.2048C46.5348 13.2048 46.7599 13.114 46.9317 12.9322L49.3811 10.3422C49.7247 9.97901 49.7247 9.39006 49.3812 9.02683Z" fill="white"/>
<path d="M29.6532 29.8872C29.3095 29.5241 28.7526 29.5239 28.4089 29.8872L25.9594 32.4772C25.6158 32.8406 25.6158 33.4295 25.9593 33.7929C26.1313 33.9746 26.3562 34.0653 26.5815 34.0653C26.8066 34.0653 27.0317 33.9746 27.2034 33.7929L29.6529 31.2028C29.9966 30.8395 29.9966 30.2505 29.6532 29.8872Z" fill="white"/>
<path d="M53.3522 20.4796H49.8882C49.4025 20.4796 49.0085 20.8959 49.0085 21.4098C49.0085 21.9234 49.4022 22.3401 49.8882 22.3401H53.3522C53.8382 22.3401 54.232 21.9235 54.232 21.4098C54.2319 20.8959 53.8381 20.4796 53.3522 20.4796Z" fill="white"/>
<path d="M25.4523 20.4796H21.9885C21.5025 20.4796 21.1088 20.8959 21.1088 21.4098C21.1088 21.9234 21.5025 22.3401 21.9885 22.3401H25.4523C25.9384 22.3401 26.3321 21.9235 26.3321 21.4098C26.3321 20.8959 25.9384 20.4796 25.4523 20.4796Z" fill="white"/>
<path d="M29.6532 11.6167L27.2038 9.02682C26.8604 8.66348 26.3033 8.66369 25.9598 9.02682C25.6161 9.39015 25.6161 9.9791 25.9599 10.3424L28.4093 12.9324C28.581 13.114 28.8061 13.205 29.0312 13.205C29.2563 13.205 29.4814 13.1142 29.6534 12.9324C29.9968 12.569 29.9968 11.98 29.6532 11.6167Z" fill="white"/>
<path d="M49.3812 32.4773L46.9319 29.8874C46.5883 29.524 46.0314 29.524 45.6876 29.8874C45.344 30.2506 45.344 30.8395 45.6876 31.2028L48.1369 33.7927C48.3088 33.9744 48.5339 34.0652 48.7591 34.0652C48.9842 34.0652 49.2094 33.9744 49.3812 33.7927C49.7249 33.4295 49.7249 32.8406 49.3812 32.4773Z" fill="white"/>
<path d="M60.7255 51.6764L60.9698 49.7926L61.081 48.9351L65.9486 49.641C66.4299 49.7109 66.8737 49.3549 66.9398 48.8459C67.0058 48.3367 66.6691 47.8676 66.1877 47.7978L61.3201 47.0919L61.9227 42.4467L66.7902 43.1527C67.2715 43.2226 67.7153 42.8666 67.7813 42.3576C67.8474 41.8484 67.5106 41.3794 67.0294 41.3095L62.1617 40.6036L62.273 39.746L62.5173 37.8623C62.5834 37.3532 62.2466 36.8842 61.7653 36.8144C61.284 36.7445 60.8402 37.1004 60.7742 37.6095L60.6494 38.5717L56.3444 37.9472C53.5407 37.5406 50.9272 39.3839 50.1386 42.1649L42.3893 41.0411C39.8527 40.6732 38.072 38.1917 38.4199 35.5095L38.7012 33.3413C38.7672 32.8323 38.4306 32.3632 37.9491 32.2933C37.4677 32.2235 37.0241 32.5793 36.958 33.0885L36.6768 35.2567C36.1971 38.9553 38.6524 42.3768 42.1501 42.8841L49.8994 44.0081C49.9509 46.9108 51.9984 49.4303 54.8021 49.8369L59.107 50.4612L58.9822 51.4233C58.9163 51.9323 59.2529 52.4014 59.7343 52.4713C60.2157 52.5412 60.6595 52.1853 60.7255 51.6764ZM55.0413 47.9938C52.9023 47.6836 51.4011 45.5911 51.6944 43.3297C51.9877 41.0681 53.9665 39.4804 56.1053 39.7907L60.4104 40.415L59.3463 48.6184L55.0413 47.994V47.9938Z" fill="white"/>
<path d="M104.802 3.3787C105.289 3.3787 105.683 2.96222 105.683 2.44848C105.683 1.93472 105.289 1.51825 104.802 1.51825C104.316 1.51825 103.922 1.93472 103.922 2.44848C103.922 2.96222 104.316 3.3787 104.802 3.3787Z" fill="white"/>
<path d="M100.662 3.3787C101.148 3.3787 101.542 2.96222 101.542 2.44848C101.542 1.93472 101.148 1.51825 100.662 1.51825C100.176 1.51825 99.7816 1.93472 99.7816 2.44848C99.7816 2.96222 100.176 3.3787 100.662 3.3787Z" fill="white"/>
</svg>
