<svg width="30" height="32" viewBox="0 0 30 32" fill="none" xmlns="http://www.w3.org/2000/svg">
<path d="M21.9598 0.424164H8.40822C3.99774 0.424164 0.409668 4.21935 0.409668 8.8844V23.2184C0.409668 27.8832 3.99774 31.6784 8.40822 31.6784H21.96C26.3702 31.6784 29.9583 27.8832 29.9583 23.2184V8.8844C29.9583 4.21935 26.3702 0.424164 21.9598 0.424164V0.424164ZM28.2261 23.2184C28.2261 26.8729 25.4151 29.8461 21.9598 29.8461H8.40822C4.95293 29.8461 2.14194 26.8729 2.14194 23.2184V8.8844C2.14194 5.22966 4.95293 2.25642 8.40822 2.25642H21.96C25.4151 2.25642 28.2261 5.22966 28.2261 8.8844V23.2184Z" fill="white"/>
<path d="M15.1841 7.50545C10.729 7.50545 7.10461 11.339 7.10461 16.0513C7.10461 20.7636 10.729 24.5971 15.1841 24.5971C19.6392 24.5971 23.2636 20.7636 23.2636 16.0513C23.2636 11.339 19.6392 7.50545 15.1841 7.50545ZM15.1841 22.7649C11.6844 22.7649 8.83688 19.7532 8.83688 16.0513C8.83688 12.3496 11.6844 9.3377 15.1841 9.3377C18.684 9.3377 21.5313 12.3496 21.5313 16.0513C21.5313 19.7532 18.684 22.7649 15.1841 22.7649Z" fill="white"/>
<path d="M23.4567 4.47041C22.1402 4.47041 21.0693 5.60329 21.0693 6.99561C21.0693 8.38816 22.1402 9.52104 23.4567 9.52104C24.7733 9.52104 25.8443 8.38816 25.8443 6.99561C25.8443 5.60306 24.7733 4.47041 23.4567 4.47041ZM23.4567 7.68855C23.0956 7.68855 22.8016 7.37761 22.8016 6.99561C22.8016 6.61337 23.0956 6.30267 23.4567 6.30267C23.8181 6.30267 24.1121 6.61337 24.1121 6.99561C24.1121 7.37761 23.8181 7.68855 23.4567 7.68855Z" fill="white"/>
</svg>
