<svg width="32" height="33" viewBox="0 0 32 24" fill="none" xmlns="http://www.w3.org/2000/svg">
<path d="M30.7626 0.522159C30.4684 0.158355 29.9806 0.0234406 29.5469 0.185338L1.99935 10.2921C1.44901 10.4951 1.06271 10.9876 0.990998 11.5772C0.91997 12.1641 1.17475 12.7335 1.6527 13.0613L5.59035 15.7903C5.97184 16.0548 6.46238 16.0831 6.8709 15.8642L15.4125 11.2913L8.75542 16.3378C8.4429 16.5749 8.25616 16.9529 8.25616 17.3488V22.0233C8.25616 22.5055 8.51667 22.9473 8.93596 23.1766C9.35594 23.406 9.86321 23.3832 10.2621 23.1161L13.2537 21.1015L16.1956 23.138C16.4534 23.3173 16.7604 23.4118 17.0702 23.4118C17.1749 23.4118 17.2801 23.4008 17.3836 23.379C17.7967 23.2915 18.1622 23.0324 18.3865 22.6681L30.8499 1.80338C31.0926 1.40166 31.0577 0.88759 30.7626 0.522159ZM17.0044 21.5346L13.9578 19.4255C13.7459 19.2785 13.5016 19.205 13.2576 19.205C13.0189 19.205 12.7799 19.2755 12.5707 19.4165L10.0167 21.1364V17.6126L21.7717 8.70146C22.2966 8.30346 22.4288 7.57911 22.079 7.01666C21.7289 6.4542 21.028 6.26416 20.4486 6.57446L6.3256 14.1355L2.99511 11.8273L28.3626 2.52052L17.0044 21.5346Z" fill="white"/>
</svg>
