<svg width="30" height="33" viewBox="0 0 30 33" fill="none" xmlns="http://www.w3.org/2000/svg">
<path d="M25.3832 5.38212C22.6766 2.51927 19.0788 0.942871 15.2509 0.942871C15.2506 0.942871 15.2497 0.942871 15.2495 0.942871C13.3563 0.94311 11.5113 1.33083 9.76617 2.09554C8.02082 2.86026 6.45718 3.96596 5.1183 5.38212C2.41191 8.24473 0.92153 12.0509 0.92153 16.0993C0.92153 18.5136 1.47228 20.9129 2.51583 23.0506L0.107245 30.3287C-0.0625104 30.842 0.0576484 31.4 0.421507 31.7846C0.676027 32.0541 1.01103 32.1972 1.3555 32.1972C1.50316 32.1972 1.6524 32.1709 1.79804 32.117L8.67888 29.5697C10.6999 30.6735 12.9683 31.256 15.2509 31.256C19.0784 31.256 22.6766 29.6794 25.3832 26.8167C28.0896 23.9541 29.5802 20.148 29.5802 16.0996C29.5802 12.0509 28.0898 8.24473 25.3832 5.38212ZM24.1577 25.5205C21.7787 28.0371 18.6153 29.4228 15.2509 29.4228C13.1926 29.4228 11.1479 28.8844 9.33761 27.8652C9.00937 27.6807 8.62139 27.6489 8.27309 27.7779L2.02167 30.0921L4.20978 23.4799C4.33174 23.111 4.30153 22.7006 4.12704 22.3537C3.16374 20.4394 2.65448 18.2766 2.65448 16.0993C2.65448 12.5407 3.96473 9.19472 6.34378 6.67834C8.72261 4.1622 11.8855 2.77632 15.2497 2.77585H15.2509C18.6155 2.77585 21.7787 4.16173 24.1577 6.67834C26.537 9.19472 27.8473 12.5404 27.8473 16.0993C27.8473 19.6582 26.537 23.0042 24.1577 25.5205Z" fill="white"/>
<path d="M20.5763 17.4537C19.9171 16.7565 18.8445 16.7565 18.1853 17.4537L17.4643 18.2163C15.6741 17.1845 14.2254 15.6522 13.2497 13.7587L13.9707 12.9961C14.6301 12.2989 14.6301 11.1643 13.9707 10.4671L12.0279 8.4121C11.3687 7.71487 10.296 7.71487 9.63685 8.4121L8.08268 10.056C7.19242 10.9976 7.14801 12.6165 7.95756 14.6145C8.66048 16.3492 9.94683 18.2558 11.5797 19.983C13.2125 21.7101 15.0151 23.0707 16.6552 23.8142C17.5527 24.2209 18.369 24.4239 19.0744 24.4239C19.8537 24.4239 20.4976 24.1761 20.9649 23.6818L22.5191 22.0377V22.0379C22.8386 21.7 23.0144 21.251 23.0144 20.7734C23.0144 20.2956 22.8386 19.8466 22.5191 19.5089L20.5763 17.4537ZM19.7394 22.3856C19.4854 22.6543 18.704 22.7485 17.3381 22.1295C15.8957 21.4757 14.2859 20.2529 12.8052 18.6867C11.3245 17.1206 10.1687 15.418 9.55051 13.8924C8.96504 12.4477 9.05409 11.6209 9.30816 11.3522L10.8326 9.7398L12.7154 11.7316L11.813 12.6863C11.405 13.1179 11.3065 13.7725 11.5682 14.3152C12.7547 16.776 14.6116 18.7401 16.9381 19.9951C17.4515 20.272 18.0703 20.168 18.4783 19.7362L19.3808 18.7816L21.2639 20.7734L19.7394 22.3856Z" fill="white"/>
</svg>
